<svg xmlns="http://www.w3.org/2000/svg" xmlns:xlink="http://www.w3.org/1999/xlink" width="500" zoomAndPan="magnify" viewBox="0 0 375 374.999991" height="500" preserveAspectRatio="xMidYMid meet" version="1.0"><defs><clipPath id="a1e9937ba3"><path d="M 56.25 9 L 291 9 L 291 347 L 56.25 347 Z M 56.25 9 " clip-rule="nonzero"/></clipPath><clipPath id="0c77d9216e"><path d="M 56.25 121 L 318.75 121 L 318.75 375 L 56.25 375 Z M 56.25 121 " clip-rule="nonzero"/></clipPath><clipPath id="11a34c0533"><path d="M 271 18 L 318.75 18 L 318.75 113 L 271 113 Z M 271 18 " clip-rule="nonzero"/></clipPath></defs><g clip-path="url(#a1e9937ba3)"><path fill="#000000" d="M 131.25 14.058594 C 131.25 11.472656 129.117188 9.3125 126.609375 9.949219 C 121.664062 11.210938 117.503906 14.4375 115.007812 18.746094 L 84.375 18.746094 C 68.84375 18.746094 56.25 31.339844 56.25 46.871094 L 56.25 201.558594 C 56.25 204.148438 58.347656 206.246094 60.9375 206.246094 C 63.527344 206.246094 65.625 204.148438 65.625 201.558594 L 65.625 46.871094 C 65.625 36.515625 74.019531 28.121094 84.375 28.121094 L 112.5 28.121094 L 112.5 46.871094 L 93.75 46.871094 C 88.570312 46.871094 84.375 51.070312 84.375 56.246094 L 84.375 337.496094 C 84.375 342.675781 88.570312 346.871094 93.75 346.871094 L 281.25 346.871094 C 286.429688 346.871094 290.625 342.675781 290.625 337.496094 L 290.625 56.246094 C 290.625 51.070312 286.429688 46.871094 281.25 46.871094 L 276.5625 46.871094 C 273.972656 46.871094 271.875 48.972656 271.875 51.558594 C 271.875 54.148438 273.972656 56.246094 276.5625 56.246094 L 281.25 56.246094 L 281.25 337.496094 L 93.75 337.496094 L 93.75 56.246094 L 112.5 56.246094 C 112.5 61.425781 116.695312 65.621094 121.875 65.621094 L 253.125 65.621094 C 258.304688 65.621094 262.5 61.425781 262.5 56.246094 L 262.5 28.121094 C 262.5 19.367188 256.5 12.015625 248.390625 9.949219 C 245.882812 9.3125 243.75 11.472656 243.75 14.058594 C 243.75 16.648438 245.972656 18.648438 248.246094 19.894531 C 251.152344 21.484375 253.125 24.574219 253.125 28.121094 L 253.125 56.246094 L 121.875 56.246094 L 121.875 28.121094 C 121.875 24.574219 123.847656 21.484375 126.753906 19.894531 C 129.027344 18.648438 131.25 16.648438 131.25 14.058594 Z M 131.25 14.058594 " fill-opacity="1" fill-rule="nonzero"/></g><g clip-path="url(#0c77d9216e)"><path fill="#000000" d="M 56.25 220.308594 C 56.25 217.722656 58.347656 215.621094 60.9375 215.621094 C 63.527344 215.621094 65.625 217.722656 65.625 220.308594 L 65.625 346.871094 C 65.625 357.226562 74.019531 365.621094 84.375 365.621094 L 290.625 365.621094 C 300.980469 365.621094 309.375 357.226562 309.375 346.871094 L 309.375 126.558594 C 309.375 123.972656 311.472656 121.871094 314.0625 121.871094 C 316.652344 121.871094 318.75 123.972656 318.75 126.558594 L 318.75 346.871094 C 318.75 362.40625 306.15625 374.996094 290.625 374.996094 L 84.375 374.996094 C 68.84375 374.996094 56.25 362.40625 56.25 346.871094 Z M 56.25 220.308594 " fill-opacity="1" fill-rule="nonzero"/></g><g clip-path="url(#11a34c0533)"><path fill="#000000" d="M 314.0625 112.496094 C 316.652344 112.496094 318.75 110.398438 318.75 107.808594 L 318.75 46.871094 C 318.75 31.339844 306.15625 18.746094 290.625 18.746094 L 276.5625 18.746094 C 273.972656 18.746094 271.875 20.847656 271.875 23.433594 C 271.875 26.023438 273.972656 28.121094 276.5625 28.121094 L 290.625 28.121094 C 300.980469 28.121094 309.375 36.515625 309.375 46.871094 L 309.375 107.808594 C 309.375 110.398438 311.472656 112.496094 314.0625 112.496094 Z M 314.0625 112.496094 " fill-opacity="1" fill-rule="nonzero"/></g><path fill="#000000" d="M 178.125 107.808594 C 178.125 105.222656 180.222656 103.121094 182.8125 103.121094 L 257.8125 103.121094 C 260.402344 103.121094 262.5 105.222656 262.5 107.808594 C 262.5 110.398438 260.402344 112.496094 257.8125 112.496094 L 182.8125 112.496094 C 180.222656 112.496094 178.125 110.398438 178.125 107.808594 Z M 178.125 107.808594 " fill-opacity="1" fill-rule="nonzero"/><path fill="#000000" d="M 178.125 192.183594 C 178.125 189.597656 180.222656 187.496094 182.8125 187.496094 L 257.8125 187.496094 C 260.402344 187.496094 262.5 189.597656 262.5 192.183594 C 262.5 194.773438 260.402344 196.871094 257.8125 196.871094 L 182.8125 196.871094 C 180.222656 196.871094 178.125 194.773438 178.125 192.183594 Z M 178.125 192.183594 " fill-opacity="1" fill-rule="nonzero"/><path fill="#000000" d="M 178.125 276.558594 C 178.125 273.972656 180.222656 271.871094 182.8125 271.871094 L 257.8125 271.871094 C 260.402344 271.871094 262.5 273.972656 262.5 276.558594 C 262.5 279.148438 260.402344 281.246094 257.8125 281.246094 L 182.8125 281.246094 C 180.222656 281.246094 178.125 279.148438 178.125 276.558594 Z M 178.125 276.558594 " fill-opacity="1" fill-rule="nonzero"/><path fill="#df5e0e" d="M 150 0.0234375 L 225 0.0234375 C 230.179688 0.0234375 234.375 4.21875 234.375 9.398438 L 234.375 46.898438 L 140.625 46.898438 L 140.625 9.398438 C 140.625 4.21875 144.820312 0.0234375 150 0.0234375 Z M 150 98.460938 C 150 102.804688 148.03125 106.691406 144.933594 109.269531 C 153.414062 112.191406 159.375 119.566406 159.375 131.273438 L 112.5 131.273438 C 112.5 119.566406 118.460938 112.191406 126.941406 109.269531 C 123.84375 106.691406 121.875 102.804688 121.875 98.460938 C 121.875 90.695312 128.171875 84.398438 135.9375 84.398438 C 143.703125 84.398438 150 90.695312 150 98.460938 Z M 144.933594 193.644531 C 148.03125 191.066406 150 187.179688 150 182.835938 C 150 175.070312 143.703125 168.773438 135.9375 168.773438 C 128.171875 168.773438 121.875 175.070312 121.875 182.835938 C 121.875 187.179688 123.84375 191.066406 126.941406 193.644531 C 118.460938 196.566406 112.5 203.941406 112.5 215.648438 L 159.375 215.648438 C 159.375 203.941406 153.414062 196.566406 144.933594 193.644531 Z M 150 267.210938 C 150 271.554688 148.03125 275.441406 144.933594 278.019531 C 153.414062 280.941406 159.375 288.316406 159.375 300.023438 L 112.5 300.023438 C 112.5 288.316406 118.460938 280.941406 126.941406 278.019531 C 123.84375 275.441406 121.875 271.554688 121.875 267.210938 C 121.875 259.445312 128.171875 253.148438 135.9375 253.148438 C 143.703125 253.148438 150 259.445312 150 267.210938 Z M 150 267.210938 " fill-opacity="1" fill-rule="evenodd"/></svg>