<svg xmlns="http://www.w3.org/2000/svg" xmlns:xlink="http://www.w3.org/1999/xlink" width="500" zoomAndPan="magnify" viewBox="0 0 375 374.999991" height="500" preserveAspectRatio="xMidYMid meet" version="1.0"><defs><clipPath id="2cca0ae0b8"><path d="M 0 65 L 375 65 L 375 327.476562 L 0 327.476562 Z M 0 65 " clip-rule="nonzero"/></clipPath><clipPath id="dbc49d3bd9"><path d="M 28 47.726562 L 71 47.726562 L 71 90 L 28 90 Z M 28 47.726562 " clip-rule="nonzero"/></clipPath><clipPath id="8c273fdca6"><path d="M 75 47.726562 L 117 47.726562 L 117 90 L 75 90 Z M 75 47.726562 " clip-rule="nonzero"/></clipPath><clipPath id="fe9a139d47"><path d="M 121 47.726562 L 164 47.726562 L 164 90 L 121 90 Z M 121 47.726562 " clip-rule="nonzero"/></clipPath><clipPath id="c2d52955a4"><path d="M 168 47.726562 L 210 47.726562 L 210 90 L 168 90 Z M 168 47.726562 " clip-rule="nonzero"/></clipPath><clipPath id="70ffeb782a"><path d="M 214 47.726562 L 257 47.726562 L 257 90 L 214 90 Z M 214 47.726562 " clip-rule="nonzero"/></clipPath><clipPath id="dd7c6856e4"><path d="M 261 47.726562 L 303 47.726562 L 303 90 L 261 90 Z M 261 47.726562 " clip-rule="nonzero"/></clipPath><clipPath id="230cefbf6a"><path d="M 307 47.726562 L 350 47.726562 L 350 90 L 307 90 Z M 307 47.726562 " clip-rule="nonzero"/></clipPath></defs><g clip-path="url(#2cca0ae0b8)"><path stroke-linecap="round" transform="matrix(0.131796, 0, 0, -0.131796, -92.698033, 467.760713)" fill="none" stroke-linejoin="round" d="M 3516.793064 1123.770914 C 3516.793064 1108.180991 3504.018812 1095.436378 3488.428889 1095.436378 L 763.541561 1095.436378 C 747.981277 1095.436378 735.207024 1108.180991 735.207024 1123.770914 L 735.207024 2993.553939 C 735.207024 3009.143862 747.981277 3021.918114 763.541561 3021.918114 L 3488.428889 3021.918114 C 3504.018812 3021.918114 3516.793064 3009.143862 3516.793064 2993.553939 Z M 3516.793064 1123.770914 " stroke="#15122a" stroke-width="60" stroke-opacity="1" stroke-miterlimit="10"/></g><path stroke-linecap="round" transform="matrix(0.131796, 0, 0, -0.131796, -92.698033, 467.760713)" fill="none" stroke-linejoin="round" d="M 764.697468 2589.43113 L 3497.142648 2589.43113 " stroke="#15122a" stroke-width="60" stroke-opacity="1" stroke-miterlimit="10"/><g clip-path="url(#dbc49d3bd9)"><path stroke-linecap="round" transform="matrix(0.131796, 0, 0, -0.131796, -92.698033, 467.760713)" fill="none" stroke-linejoin="round" d="M 1070.034701 2902.089107 C 1003.021744 2905.793936 949.790753 2961.307103 949.790753 3029.268496 C 949.790753 3099.571342 1006.845128 3156.596079 1077.147974 3156.596079 C 1146.650577 3156.596079 1203.11218 3100.934719 1204.505195 3031.758142 " stroke="#15122a" stroke-width="60" stroke-opacity="1" stroke-miterlimit="10"/></g><g clip-path="url(#8c273fdca6)"><path stroke-linecap="round" transform="matrix(0.131796, 0, 0, -0.131796, -92.698033, 467.760713)" fill="none" stroke-linejoin="round" d="M 1423.119779 2902.089107 C 1356.106821 2905.793936 1302.846191 2961.307103 1302.846191 3029.268496 C 1302.846191 3099.571342 1359.870928 3156.596079 1430.233051 3156.596079 C 1499.735654 3156.596079 1556.197257 3100.934719 1557.530995 3031.758142 " stroke="#15122a" stroke-width="60" stroke-opacity="1" stroke-miterlimit="10"/></g><g clip-path="url(#fe9a139d47)"><path stroke-linecap="round" transform="matrix(0.131796, 0, 0, -0.131796, -92.698033, 467.760713)" fill="none" stroke-linejoin="round" d="M 1776.175217 2902.089107 C 1709.132621 2905.793936 1655.931269 2961.307103 1655.931269 3029.268496 C 1655.931269 3099.571342 1712.956005 3156.596079 1783.318129 3156.596079 C 1852.761454 3156.596079 1909.282334 3100.934719 1910.616072 3031.758142 " stroke="#15122a" stroke-width="60" stroke-opacity="1" stroke-miterlimit="10"/></g><g clip-path="url(#c2d52955a4)"><path stroke-linecap="round" transform="matrix(0.131796, 0, 0, -0.131796, -92.698033, 467.760713)" fill="none" stroke-linejoin="round" d="M 2129.260294 2902.089107 C 2062.217698 2905.793936 2009.016346 2961.307103 2009.016346 3029.268496 C 2009.016346 3099.571342 2066.041083 3156.596079 2136.403206 3156.596079 C 2205.846531 3156.596079 2262.337772 3100.934719 2263.70115 3031.758142 " stroke="#15122a" stroke-width="60" stroke-opacity="1" stroke-miterlimit="10"/></g><g clip-path="url(#70ffeb782a)"><path stroke-linecap="round" transform="matrix(0.131796, 0, 0, -0.131796, -92.698033, 467.760713)" fill="none" stroke-linejoin="round" d="M 2482.345371 2902.089107 C 2415.302776 2905.793936 2362.101423 2961.307103 2362.101423 3029.268496 C 2362.101423 3099.571342 2419.096521 3156.596079 2489.458644 3156.596079 C 2558.931608 3156.596079 2615.422849 3100.934719 2616.786227 3031.758142 " stroke="#15122a" stroke-width="60" stroke-opacity="1" stroke-miterlimit="10"/></g><g clip-path="url(#dd7c6856e4)"><path stroke-linecap="round" transform="matrix(0.131796, 0, 0, -0.131796, -92.698033, 467.760713)" fill="none" stroke-linejoin="round" d="M 2835.40081 2902.089107 C 2768.387853 2905.793936 2715.156861 2961.307103 2715.156861 3029.268496 C 2715.156861 3099.571342 2772.181598 3156.596079 2842.543721 3156.596079 C 2912.016685 3156.596079 2968.507927 3100.934719 2969.841665 3031.758142 " stroke="#15122a" stroke-width="60" stroke-opacity="1" stroke-miterlimit="10"/></g><g clip-path="url(#230cefbf6a)"><path stroke-linecap="round" transform="matrix(0.131796, 0, 0, -0.131796, -92.698033, 467.760713)" fill="none" stroke-linejoin="round" d="M 3188.515526 2902.089107 C 3121.443291 2905.793936 3068.241939 2961.307103 3068.241939 3029.268496 C 3068.241939 3099.571342 3125.266675 3156.596079 3195.628798 3156.596079 C 3265.072124 3156.596079 3321.593004 3100.934719 3322.956381 3031.758142 " stroke="#15122a" stroke-width="60" stroke-opacity="1" stroke-miterlimit="10"/></g><path fill="#df5e0e" d="M 73.839844 190.101562 C 73.839844 192.164062 72.15625 193.839844 70.101562 193.839844 L 44.035156 193.839844 C 41.980469 193.839844 40.300781 192.164062 40.300781 190.101562 L 40.300781 164.042969 C 40.300781 161.988281 41.980469 160.304688 44.035156 160.304688 L 70.101562 160.304688 C 72.15625 160.304688 73.839844 161.988281 73.839844 164.042969 L 73.839844 190.101562 " fill-opacity="1" fill-rule="nonzero"/><path stroke-linecap="round" transform="matrix(0.131796, 0, 0, -0.131796, -92.698033, 467.760713)" fill="none" stroke-linejoin="round" d="M 1263.604637 2106.736295 C 1263.604637 2091.087095 1250.830384 2078.37212 1235.240462 2078.37212 L 1037.46184 2078.37212 C 1021.871917 2078.37212 1009.127303 2091.087095 1009.127303 2106.736295 L 1009.127303 2304.45564 C 1009.127303 2320.045562 1021.871917 2332.819815 1037.46184 2332.819815 L 1235.240462 2332.819815 C 1250.830384 2332.819815 1263.604637 2320.045562 1263.604637 2304.45564 Z M 1263.604637 2106.736295 " stroke="#15122a" stroke-width="60" stroke-opacity="1" stroke-miterlimit="10"/><path fill="#df5e0e" d="M 138.851562 189.808594 C 138.851562 191.863281 137.167969 193.546875 135.113281 193.546875 L 109.046875 193.546875 C 106.992188 193.546875 105.316406 191.863281 105.316406 189.808594 L 105.316406 163.742188 C 105.316406 161.691406 106.992188 160.007812 109.046875 160.007812 L 135.113281 160.007812 C 137.167969 160.007812 138.851562 161.691406 138.851562 163.742188 L 138.851562 189.808594 " fill-opacity="1" fill-rule="nonzero"/><path stroke-linecap="round" transform="matrix(0.131796, 0, 0, -0.131796, -92.698033, 467.760713)" fill="none" stroke-linejoin="round" d="M 1756.880465 2108.959193 C 1756.880465 2093.36927 1744.106212 2080.595018 1728.51629 2080.595018 L 1530.737668 2080.595018 C 1515.147745 2080.595018 1502.43277 2093.36927 1502.43277 2108.959193 L 1502.43277 2306.737815 C 1502.43277 2322.298099 1515.147745 2335.072351 1530.737668 2335.072351 L 1728.51629 2335.072351 C 1744.106212 2335.072351 1756.880465 2322.298099 1756.880465 2306.737815 Z M 1756.880465 2108.959193 " stroke="#15122a" stroke-width="60" stroke-opacity="1" stroke-miterlimit="10"/><path fill="#df5e0e" d="M 203.863281 189.515625 C 203.863281 191.570312 202.179688 193.25 200.125 193.25 L 174.058594 193.25 C 172.003906 193.25 170.320312 191.570312 170.320312 189.515625 L 170.320312 163.457031 C 170.320312 161.402344 172.003906 159.71875 174.058594 159.71875 L 200.125 159.71875 C 202.179688 159.71875 203.863281 161.402344 203.863281 163.457031 L 203.863281 189.515625 " fill-opacity="1" fill-rule="nonzero"/><path stroke-linecap="round" transform="matrix(0.131796, 0, 0, -0.131796, -92.698033, 467.760713)" fill="none" stroke-linejoin="round" d="M 2250.156293 2111.182091 C 2250.156293 2095.592168 2237.38204 2082.847554 2221.792118 2082.847554 L 2024.013496 2082.847554 C 2008.423573 2082.847554 1995.649321 2095.592168 1995.649321 2111.182091 L 1995.649321 2308.901435 C 1995.649321 2324.491358 2008.423573 2337.26561 2024.013496 2337.26561 L 2221.792118 2337.26561 C 2237.38204 2337.26561 2250.156293 2324.491358 2250.156293 2308.901435 Z M 2250.156293 2111.182091 " stroke="#15122a" stroke-width="60" stroke-opacity="1" stroke-miterlimit="10"/><path fill="#df5e0e" d="M 268.871094 189.222656 C 268.871094 191.277344 267.191406 192.953125 265.136719 192.953125 L 239.074219 192.953125 C 237.019531 192.953125 235.335938 191.277344 235.335938 189.222656 L 235.335938 163.160156 C 235.335938 161.101562 237.019531 159.425781 239.074219 159.425781 L 265.136719 159.425781 C 267.191406 159.425781 268.871094 161.101562 268.871094 163.160156 L 268.871094 189.222656 " fill-opacity="1" fill-rule="nonzero"/><path stroke-linecap="round" transform="matrix(0.131796, 0, 0, -0.131796, -92.698033, 467.760713)" fill="none" stroke-linejoin="round" d="M 2743.402482 2113.404988 C 2743.402482 2097.815066 2730.657868 2085.100091 2715.067946 2085.100091 L 2517.318963 2085.100091 C 2501.72904 2085.100091 2488.954787 2097.815066 2488.954787 2113.404988 L 2488.954787 2311.153971 C 2488.954787 2326.773533 2501.72904 2339.488508 2517.318963 2339.488508 L 2715.067946 2339.488508 C 2730.657868 2339.488508 2743.402482 2326.773533 2743.402482 2311.153971 Z M 2743.402482 2113.404988 " stroke="#15122a" stroke-width="60" stroke-opacity="1" stroke-miterlimit="10"/><path fill="#df5e0e" d="M 333.882812 188.929688 C 333.882812 190.984375 332.203125 192.667969 330.144531 192.667969 L 304.085938 192.667969 C 302.03125 192.667969 300.347656 190.984375 300.347656 188.929688 L 300.347656 162.863281 C 300.347656 160.808594 302.03125 159.125 304.085938 159.125 L 330.144531 159.125 C 332.203125 159.125 333.882812 160.808594 333.882812 162.863281 L 333.882812 188.929688 " fill-opacity="1" fill-rule="nonzero"/><path stroke-linecap="round" transform="matrix(0.131796, 0, 0, -0.131796, -92.698033, 467.760713)" fill="none" stroke-linejoin="round" d="M 3236.67831 2115.627886 C 3236.67831 2100.037963 3223.933696 2087.263711 3208.314135 2087.263711 L 3010.594791 2087.263711 C 2995.004868 2087.263711 2982.230615 2100.037963 2982.230615 2115.627886 L 2982.230615 2313.406508 C 2982.230615 2328.996431 2995.004868 2341.770683 3010.594791 2341.770683 L 3208.314135 2341.770683 C 3223.933696 2341.770683 3236.67831 2328.996431 3236.67831 2313.406508 Z M 3236.67831 2115.627886 " stroke="#15122a" stroke-width="60" stroke-opacity="1" stroke-miterlimit="10"/><path fill="#df5e0e" d="M 73.832031 240.847656 C 73.832031 242.902344 72.15625 244.582031 70.101562 244.582031 L 44.035156 244.582031 C 41.980469 244.582031 40.296875 242.902344 40.296875 240.847656 L 40.296875 214.789062 C 40.296875 212.730469 41.980469 211.050781 44.035156 211.050781 L 70.101562 211.050781 C 72.15625 211.050781 73.832031 212.730469 73.832031 214.789062 L 73.832031 240.847656 " fill-opacity="1" fill-rule="nonzero"/><path stroke-linecap="round" transform="matrix(0.131796, 0, 0, -0.131796, -92.698033, 467.760713)" fill="none" stroke-linejoin="round" d="M 1263.545359 1721.700768 C 1263.545359 1706.110845 1250.830384 1693.366231 1235.240462 1693.366231 L 1037.46184 1693.366231 C 1021.871917 1693.366231 1009.097665 1706.110845 1009.097665 1721.700768 L 1009.097665 1919.420112 C 1009.097665 1935.039674 1021.871917 1947.784287 1037.46184 1947.784287 L 1235.240462 1947.784287 C 1250.830384 1947.784287 1263.545359 1935.039674 1263.545359 1919.420112 Z M 1263.545359 1721.700768 " stroke="#15122a" stroke-width="60" stroke-opacity="1" stroke-miterlimit="10"/><path fill="#df5e0e" d="M 138.84375 240.554688 C 138.84375 242.609375 137.167969 244.292969 135.113281 244.292969 L 109.046875 244.292969 C 106.992188 244.292969 105.308594 242.609375 105.308594 240.554688 L 105.308594 214.488281 C 105.308594 212.4375 106.992188 210.757812 109.046875 210.757812 L 135.113281 210.757812 C 137.167969 210.757812 138.84375 212.4375 138.84375 214.488281 L 138.84375 240.554688 " fill-opacity="1" fill-rule="nonzero"/><path stroke-linecap="round" transform="matrix(0.131796, 0, 0, -0.131796, -92.698033, 467.760713)" fill="none" stroke-linejoin="round" d="M 1756.821187 1723.923666 C 1756.821187 1708.333743 1744.106212 1695.55949 1728.51629 1695.55949 L 1530.737668 1695.55949 C 1515.147745 1695.55949 1502.373493 1708.333743 1502.373493 1723.923666 L 1502.373493 1921.702287 C 1502.373493 1937.262571 1515.147745 1950.007185 1530.737668 1950.007185 L 1728.51629 1950.007185 C 1744.106212 1950.007185 1756.821187 1937.262571 1756.821187 1921.702287 Z M 1756.821187 1723.923666 " stroke="#15122a" stroke-width="60" stroke-opacity="1" stroke-miterlimit="10"/><path fill="#df5e0e" d="M 203.863281 240.257812 C 203.863281 242.316406 202.179688 243.996094 200.125 243.996094 L 174.058594 243.996094 C 172.003906 243.996094 170.320312 242.316406 170.320312 240.257812 L 170.320312 214.203125 C 170.320312 212.144531 172.003906 210.464844 174.058594 210.464844 L 200.125 210.464844 C 202.179688 210.464844 203.863281 212.144531 203.863281 214.203125 L 203.863281 240.257812 " fill-opacity="1" fill-rule="nonzero"/><path stroke-linecap="round" transform="matrix(0.131796, 0, 0, -0.131796, -92.698033, 467.760713)" fill="none" stroke-linejoin="round" d="M 2250.156293 1726.176202 C 2250.156293 1710.556641 2237.38204 1697.812027 2221.792118 1697.812027 L 2024.013496 1697.812027 C 2008.423573 1697.812027 1995.649321 1710.556641 1995.649321 1726.176202 L 1995.649321 1923.865908 C 1995.649321 1939.485469 2008.423573 1952.230083 2024.013496 1952.230083 L 2221.792118 1952.230083 C 2237.38204 1952.230083 2250.156293 1939.485469 2250.156293 1923.865908 Z M 2250.156293 1726.176202 " stroke="#15122a" stroke-width="60" stroke-opacity="1" stroke-miterlimit="10"/><path fill="#df5e0e" d="M 268.871094 239.964844 C 268.871094 242.023438 267.1875 243.703125 265.132812 243.703125 L 239.074219 243.703125 C 237.019531 243.703125 235.335938 242.023438 235.335938 239.964844 L 235.335938 213.902344 C 235.335938 211.847656 237.019531 210.164062 239.074219 210.164062 L 265.132812 210.164062 C 267.1875 210.164062 268.871094 211.847656 268.871094 213.902344 L 268.871094 239.964844 " fill-opacity="1" fill-rule="nonzero"/><path stroke-linecap="round" transform="matrix(0.131796, 0, 0, -0.131796, -92.698033, 467.760713)" fill="none" stroke-linejoin="round" d="M 2743.402482 1728.3991 C 2743.402482 1712.779538 2730.62823 1700.034925 2715.038307 1700.034925 L 2517.318963 1700.034925 C 2501.72904 1700.034925 2488.954787 1712.779538 2488.954787 1728.3991 L 2488.954787 1926.148083 C 2488.954787 1941.738006 2501.72904 1954.512258 2517.318963 1954.512258 L 2715.038307 1954.512258 C 2730.62823 1954.512258 2743.402482 1941.738006 2743.402482 1926.148083 Z M 2743.402482 1728.3991 " stroke="#15122a" stroke-width="60" stroke-opacity="1" stroke-miterlimit="10"/><path fill="#df5e0e" d="M 333.882812 239.671875 C 333.882812 241.722656 332.203125 243.40625 330.144531 243.40625 L 304.085938 243.40625 C 302.027344 243.40625 300.347656 241.722656 300.347656 239.671875 L 300.347656 213.609375 C 300.347656 211.554688 302.027344 209.871094 304.085938 209.871094 L 330.144531 209.871094 C 332.203125 209.871094 333.882812 211.554688 333.882812 213.609375 L 333.882812 239.671875 " fill-opacity="1" fill-rule="nonzero"/><path stroke-linecap="round" transform="matrix(0.131796, 0, 0, -0.131796, -92.698033, 467.760713)" fill="none" stroke-linejoin="round" d="M 3236.67831 1730.621998 C 3236.67831 1715.061713 3223.933696 1702.287461 3208.314135 1702.287461 L 3010.594791 1702.287461 C 2994.975229 1702.287461 2982.230615 1715.061713 2982.230615 1730.621998 L 2982.230615 1928.370981 C 2982.230615 1943.960903 2994.975229 1956.735156 3010.594791 1956.735156 L 3208.314135 1956.735156 C 3223.933696 1956.735156 3236.67831 1943.960903 3236.67831 1928.370981 Z M 3236.67831 1730.621998 " stroke="#15122a" stroke-width="60" stroke-opacity="1" stroke-miterlimit="10"/><path fill="#df5e0e" d="M 73.832031 291.589844 C 73.832031 293.648438 72.15625 295.328125 70.101562 295.328125 L 44.035156 295.328125 C 41.980469 295.328125 40.296875 293.648438 40.296875 291.589844 L 40.296875 265.53125 C 40.296875 263.476562 41.980469 261.792969 44.035156 261.792969 L 70.101562 261.792969 C 72.15625 261.792969 73.832031 263.476562 73.832031 265.53125 L 73.832031 291.589844 " fill-opacity="1" fill-rule="nonzero"/><path stroke-linecap="round" transform="matrix(0.131796, 0, 0, -0.131796, -92.698033, 467.760713)" fill="none" stroke-linejoin="round" d="M 1263.545359 1336.694879 C 1263.545359 1321.075318 1250.830384 1308.330704 1235.240462 1308.330704 L 1037.46184 1308.330704 C 1021.871917 1308.330704 1009.097665 1321.075318 1009.097665 1336.694879 L 1009.097665 1534.414224 C 1009.097665 1550.004146 1021.871917 1562.778399 1037.46184 1562.778399 L 1235.240462 1562.778399 C 1250.830384 1562.778399 1263.545359 1550.004146 1263.545359 1534.414224 Z M 1263.545359 1336.694879 " stroke="#15122a" stroke-width="60" stroke-opacity="1" stroke-miterlimit="10"/><path fill="#df5e0e" d="M 138.84375 291.296875 C 138.84375 293.351562 137.167969 295.035156 135.113281 295.035156 L 109.046875 295.035156 C 106.992188 295.035156 105.308594 293.351562 105.308594 291.296875 L 105.308594 265.238281 C 105.308594 263.183594 106.992188 261.5 109.046875 261.5 L 135.113281 261.5 C 137.167969 261.5 138.84375 263.183594 138.84375 265.238281 L 138.84375 291.296875 " fill-opacity="1" fill-rule="nonzero"/><path stroke-linecap="round" transform="matrix(0.131796, 0, 0, -0.131796, -92.698033, 467.760713)" fill="none" stroke-linejoin="round" d="M 1756.821187 1338.917777 C 1756.821187 1323.327854 1744.106212 1310.553602 1728.51629 1310.553602 L 1530.737668 1310.553602 C 1515.147745 1310.553602 1502.373493 1323.327854 1502.373493 1338.917777 L 1502.373493 1536.637121 C 1502.373493 1552.227044 1515.147745 1565.001296 1530.737668 1565.001296 L 1728.51629 1565.001296 C 1744.106212 1565.001296 1756.821187 1552.227044 1756.821187 1536.637121 Z M 1756.821187 1338.917777 " stroke="#15122a" stroke-width="60" stroke-opacity="1" stroke-miterlimit="10"/><path fill="#df5e0e" d="M 203.863281 291.003906 C 203.863281 293.058594 202.179688 294.742188 200.125 294.742188 L 174.058594 294.742188 C 172.003906 294.742188 170.320312 293.058594 170.320312 291.003906 L 170.320312 264.941406 C 170.320312 262.882812 172.003906 261.207031 174.058594 261.207031 L 200.125 261.207031 C 202.179688 261.207031 203.863281 262.882812 203.863281 264.941406 L 203.863281 291.003906 " fill-opacity="1" fill-rule="nonzero"/><path stroke-linecap="round" transform="matrix(0.131796, 0, 0, -0.131796, -92.698033, 467.760713)" fill="none" stroke-linejoin="round" d="M 2250.156293 1341.140675 C 2250.156293 1325.550752 2237.38204 1312.776499 2221.792118 1312.776499 L 2024.013496 1312.776499 C 2008.423573 1312.776499 1995.649321 1325.550752 1995.649321 1341.140675 L 1995.649321 1538.889658 C 1995.649321 1554.509219 2008.423573 1567.224194 2024.013496 1567.224194 L 2221.792118 1567.224194 C 2237.38204 1567.224194 2250.156293 1554.509219 2250.156293 1538.889658 Z M 2250.156293 1341.140675 " stroke="#15122a" stroke-width="60" stroke-opacity="1" stroke-miterlimit="10"/><path fill="#df5e0e" d="M 268.871094 290.710938 C 268.871094 292.769531 267.1875 294.449219 265.132812 294.449219 L 239.074219 294.449219 C 237.019531 294.449219 235.335938 292.769531 235.335938 290.710938 L 235.335938 264.648438 C 235.335938 262.589844 237.019531 260.914062 239.074219 260.914062 L 265.132812 260.914062 C 267.1875 260.914062 268.871094 262.589844 268.871094 264.648438 L 268.871094 290.710938 " fill-opacity="1" fill-rule="nonzero"/><path stroke-linecap="round" transform="matrix(0.131796, 0, 0, -0.131796, -92.698033, 467.760713)" fill="none" stroke-linejoin="round" d="M 2743.402482 1343.363572 C 2743.402482 1327.744011 2730.62823 1314.999397 2715.038307 1314.999397 L 2517.318963 1314.999397 C 2501.72904 1314.999397 2488.954787 1327.744011 2488.954787 1343.363572 L 2488.954787 1541.112555 C 2488.954787 1556.732117 2501.72904 1569.447092 2517.318963 1569.447092 L 2715.038307 1569.447092 C 2730.62823 1569.447092 2743.402482 1556.732117 2743.402482 1541.112555 Z M 2743.402482 1343.363572 " stroke="#15122a" stroke-width="60" stroke-opacity="1" stroke-miterlimit="10"/><path fill="#df5e0e" d="M 333.882812 290.417969 C 333.882812 292.472656 332.203125 294.15625 330.144531 294.15625 L 304.085938 294.15625 C 302.027344 294.15625 300.347656 292.472656 300.347656 290.417969 L 300.347656 264.351562 C 300.347656 262.296875 302.027344 260.617188 304.085938 260.617188 L 330.144531 260.617188 C 332.203125 260.617188 333.882812 262.296875 333.882812 264.351562 L 333.882812 290.417969 " fill-opacity="1" fill-rule="nonzero"/><path stroke-linecap="round" transform="matrix(0.131796, 0, 0, -0.131796, -92.698033, 467.760713)" fill="none" stroke-linejoin="round" d="M 3236.67831 1345.58647 C 3236.67831 1329.996547 3223.933696 1317.222295 3208.314135 1317.222295 L 3010.594791 1317.222295 C 2994.975229 1317.222295 2982.230615 1329.996547 2982.230615 1345.58647 L 2982.230615 1543.365092 C 2982.230615 1558.955015 2994.975229 1571.699628 3010.594791 1571.699628 L 3208.314135 1571.699628 C 3223.933696 1571.699628 3236.67831 1558.955015 3236.67831 1543.365092 Z M 3236.67831 1345.58647 " stroke="#15122a" stroke-width="60" stroke-opacity="1" stroke-miterlimit="10"/></svg>