<svg xmlns="http://www.w3.org/2000/svg" xmlns:xlink="http://www.w3.org/1999/xlink" width="500" zoomAndPan="magnify" viewBox="0 0 375 374.999991" height="500" preserveAspectRatio="xMidYMid meet" version="1.0"><defs><clipPath id="1b1db17bdd"><path d="M 0 45.339844 L 375 45.339844 L 375 195 L 0 195 Z M 0 45.339844 " clip-rule="nonzero"/></clipPath></defs><g clip-path="url(#1b1db17bdd)"><path fill="#4d4d4d" d="M 201.175781 99.804688 C 200.921875 101.847656 205.011719 103.894531 209.867188 104.40625 C 210.378906 104.40625 210.890625 104.40625 211.402344 104.40625 L 292.945312 158.585938 L 159.507812 141.207031 L 0 45.367188 L 209.355469 76.546875 L 375 169.320312 L 301.636719 159.863281 L 299.078125 159.609375 L 217.28125 103.636719 C 218.558594 103.128906 219.582031 102.871094 219.582031 101.339844 C 219.835938 99.804688 215.746094 96.992188 210.890625 96.738281 C 205.777344 96.226562 201.429688 97.503906 201.175781 99.804688 Z M 259.96875 186.445312 C 260.992188 169.066406 260.992188 159.097656 259.96875 156.542969 L 159.253906 143.507812 L 117.84375 118.460938 C 107.617188 135.585938 100.714844 152.964844 96.882812 170.597656 C 96.625 171.363281 96.625 172.386719 96.371094 173.152344 C 168.96875 196.667969 223.414062 201.011719 259.96875 186.445312 Z M 259.96875 186.445312 " fill-opacity="1" fill-rule="evenodd"/></g><path fill="#cc9933" d="M 292.433594 272.058594 C 292.433594 271.804688 292.433594 271.546875 292.433594 271.292969 C 292.433594 271.292969 292.433594 271.804688 292.433594 272.058594 Z M 209.867188 104.660156 C 204.5 104.148438 200.410156 101.847656 200.664062 99.550781 C 200.921875 97.25 205.265625 95.972656 210.632812 96.484375 C 216.003906 96.992188 220.09375 99.292969 219.835938 101.59375 C 219.835938 102.617188 218.8125 103.382812 217.28125 103.894531 L 299.078125 159.351562 L 298.824219 169.574219 C 303.167969 171.363281 305.726562 175.710938 305.46875 180.566406 C 304.960938 185.164062 301.890625 188.742188 297.546875 190.023438 C 297.289062 208.167969 296.777344 226.3125 296.269531 244.457031 C 296.269531 246.757812 296.011719 249.058594 296.011719 251.101562 C 295.757812 262.347656 295.5 272.058594 294.988281 280.492188 C 294.222656 301.707031 293.457031 313.972656 292.945312 317.296875 L 293.710938 281.261719 L 293.96875 269.25 L 293.199219 281.515625 L 290.898438 321.386719 C 291.15625 303.496094 291.410156 290.460938 291.667969 282.027344 C 291.921875 276.914062 291.921875 273.59375 291.921875 272.316406 C 291.667969 275.894531 291.410156 278.960938 291.15625 282.28125 C 289.621094 300.683594 288.855469 312.953125 288.597656 319.085938 C 289.109375 301.960938 289.367188 289.949219 289.367188 283.050781 C 289.367188 278.960938 289.367188 276.660156 289.109375 276.40625 C 288.855469 278.703125 288.855469 281.003906 288.597656 283.304688 C 287.320312 304.261719 286.296875 317.808594 286.042969 324.453125 C 286.042969 305.539062 286.296875 292.25 286.296875 284.328125 C 286.296875 280.75 286.554688 278.449219 286.554688 277.171875 C 286.296875 279.726562 286.296875 282.28125 286.042969 284.582031 C 284.253906 310.90625 283.488281 324.707031 283.230469 325.984375 C 283.230469 305.539062 283.230469 292.25 283.230469 285.859375 C 283.230469 284.582031 283.230469 283.5625 283.230469 282.792969 C 282.976562 283.816406 282.976562 285.09375 282.976562 285.859375 C 280.929688 313.207031 279.90625 327.261719 279.652344 327.773438 L 279.652344 280.492188 C 279.398438 283.050781 279.398438 285.351562 279.398438 287.648438 C 278.117188 316.019531 276.839844 329.5625 275.816406 328.542969 L 277.097656 288.925781 C 281.1875 256.214844 286.808594 222.222656 289.621094 190.023438 C 285.789062 187.976562 283.230469 183.886719 283.742188 179.289062 C 284.253906 174.6875 287.320312 171.109375 291.410156 169.832031 L 292.433594 159.351562 L 211.910156 104.660156 L 211.65625 104.660156 C 210.890625 104.660156 210.378906 104.660156 209.867188 104.660156 Z M 287.066406 276.914062 C 287.066406 276.660156 287.066406 276.148438 287.066406 275.636719 C 287.066406 275.636719 287.066406 276.148438 287.066406 276.914062 Z M 283.742188 282.28125 C 283.742188 282.027344 283.742188 281.515625 283.742188 281.261719 C 283.742188 281.515625 283.742188 281.773438 283.742188 282.28125 Z M 283.742188 282.28125 " fill-opacity="1" fill-rule="evenodd"/></svg>