<svg xmlns="http://www.w3.org/2000/svg" xmlns:xlink="http://www.w3.org/1999/xlink" width="500" zoomAndPan="magnify" viewBox="0 0 375 374.999991" height="500" preserveAspectRatio="xMidYMid meet" version="1.0"><defs><clipPath id="e9314962a2"><path d="M 17.386719 1 L 357.886719 1 L 357.886719 325 L 17.386719 325 Z M 17.386719 1 " clip-rule="nonzero"/></clipPath></defs><path fill="#df5e0e" d="M 187.496094 358.039062 C 173.972656 358.039062 161.792969 350.042969 156.339844 337.640625 L 140.796875 344.441406 C 148.941406 362.96875 167.246094 375 187.496094 375 C 208.042969 375 226.421875 362.820312 234.417969 343.917969 L 218.800781 337.269531 C 213.421875 349.894531 201.167969 358.039062 187.496094 358.039062 Z M 187.496094 358.039062 " fill-opacity="1" fill-rule="nonzero"/><g clip-path="url(#e9314962a2)"><path fill="#df5e0e" d="M 354.261719 300.582031 L 309.433594 263.226562 C 307.488281 261.582031 306.367188 259.265625 306.367188 256.722656 L 306.367188 154.214844 C 306.367188 121.414062 293.292969 90.855469 269.535156 68.214844 C 255.5625 54.917969 238.976562 45.503906 221.042969 40.273438 C 221.417969 37.65625 221.566406 35.042969 221.34375 32.277344 C 220.070312 17.78125 209.386719 5.453125 195.339844 2.316406 C 185.03125 0 174.421875 2.390625 166.277344 8.890625 C 158.207031 15.390625 153.574219 25.03125 153.574219 35.414062 C 153.574219 37.132812 153.875 38.703125 154.097656 40.347656 C 104.484375 55.140625 68.621094 101.914062 68.621094 157.351562 L 68.621094 256.648438 C 68.621094 259.191406 67.5 261.582031 65.558594 263.148438 L 20.730469 300.507812 C 18.785156 302.152344 17.667969 304.542969 17.667969 307.007812 L 17.667969 315.527344 C 17.667969 320.234375 21.476562 324.042969 26.183594 324.042969 L 348.808594 324.042969 C 353.515625 324.042969 357.324219 320.234375 357.324219 315.527344 L 357.324219 307.007812 C 357.25 304.542969 356.128906 302.152344 354.261719 300.582031 Z M 170.460938 35.414062 C 170.460938 30.183594 172.777344 25.402344 176.8125 22.117188 C 180.921875 18.828125 186.074219 17.632812 191.53125 18.828125 C 198.328125 20.398438 203.710938 26.597656 204.382812 33.695312 C 204.457031 34.667969 204.308594 35.640625 204.230469 36.609375 C 196.835938 35.566406 189.363281 35.191406 181.667969 35.488281 C 177.933594 35.640625 174.195312 36.011719 170.535156 36.609375 C 170.609375 36.164062 170.460938 35.789062 170.460938 35.414062 Z M 39.410156 307.082031 L 76.394531 276.226562 C 82.222656 271.367188 85.582031 264.269531 85.582031 256.648438 L 85.582031 157.351562 C 85.582031 101.089844 128.171875 54.992188 182.566406 52.449219 C 210.808594 51.105469 237.480469 61.117188 257.804688 80.46875 C 278.125 99.894531 289.332031 126.046875 289.332031 154.214844 L 289.332031 256.648438 C 289.332031 264.195312 292.695312 271.367188 298.523438 276.226562 L 335.507812 307.082031 Z M 39.410156 307.082031 " fill-opacity="1" fill-rule="nonzero"/></g></svg>