<svg xmlns="http://www.w3.org/2000/svg" xmlns:xlink="http://www.w3.org/1999/xlink" width="500" zoomAndPan="magnify" viewBox="0 0 375 374.999991" height="500" preserveAspectRatio="xMidYMid meet" version="1.0"><defs><clipPath id="da7a6c0ed7"><path d="M 0 36.09375 L 241 36.09375 L 241 215 L 0 215 Z M 0 36.09375 " clip-rule="nonzero"/></clipPath><clipPath id="27d0da1089"><path d="M 134.300781 121.535156 L 375 121.535156 L 375 338.898438 L 134.300781 338.898438 Z M 134.300781 121.535156 " clip-rule="nonzero"/></clipPath></defs><g clip-path="url(#da7a6c0ed7)"><path fill="#df5e0e" d="M 127.210938 142.292969 L 95.308594 142.292969 C 93.125 142.292969 91.152344 143.1875 89.738281 144.628906 L 46.894531 187.472656 L 46.894531 150.105469 C 46.894531 145.792969 43.394531 142.292969 39.082031 142.292969 L 26.589844 142.292969 C 23.589844 142.292969 20.859375 141.0625 18.875 139.078125 C 16.890625 137.09375 15.65625 134.363281 15.65625 131.367188 L 15.65625 62.648438 C 15.65625 59.648438 16.890625 56.917969 18.875 54.933594 C 20.859375 52.949219 23.589844 51.71875 26.589844 51.71875 L 214.003906 51.71875 C 217 51.71875 219.734375 52.949219 221.714844 54.933594 C 223.703125 56.917969 224.933594 59.648438 224.933594 62.648438 L 224.933594 113.976562 L 240.558594 113.976562 L 240.558594 62.648438 C 240.558594 55.335938 237.574219 48.695312 232.761719 43.886719 C 227.953125 39.078125 221.308594 36.09375 214.003906 36.09375 L 26.589844 36.09375 C 19.277344 36.09375 12.636719 39.078125 7.832031 43.886719 C 3.019531 48.695312 0.0351562 55.335938 0.0351562 62.648438 L 0.0351562 131.367188 C 0.0351562 138.671875 3.019531 145.316406 7.832031 150.125 C 12.636719 154.933594 19.277344 157.921875 26.589844 157.921875 L 31.269531 157.921875 L 31.269531 206.332031 C 31.269531 208.328125 32.03125 210.328125 33.558594 211.855469 C 36.609375 214.90625 41.554688 214.90625 44.609375 211.855469 L 98.542969 157.921875 L 126.671875 157.921875 L 126.671875 148.339844 C 126.671875 146.296875 126.855469 144.277344 127.210938 142.292969 " fill-opacity="1" fill-rule="nonzero"/></g><g clip-path="url(#27d0da1089)"><path fill="#df5e0e" d="M 348.453125 137.410156 L 254.746094 137.410156 L 254.746094 121.785156 L 348.453125 121.785156 C 355.761719 121.785156 362.402344 124.769531 367.210938 129.582031 C 372.019531 134.390625 375.007812 141.03125 375.007812 148.339844 L 375.007812 256.117188 C 375.007812 263.429688 372.019531 270.066406 367.210938 274.878906 C 362.402344 279.6875 355.761719 282.671875 348.453125 282.671875 L 343.773438 282.671875 L 343.773438 331.085938 C 343.773438 333.085938 343.007812 335.082031 341.484375 336.609375 C 338.433594 339.660156 333.484375 339.660156 330.433594 336.609375 L 276.5 282.671875 L 254.746094 282.671875 L 254.746094 267.046875 L 279.734375 267.046875 C 281.914062 267.046875 283.886719 267.941406 285.304688 269.382812 L 328.144531 312.222656 L 328.144531 274.859375 C 328.144531 270.542969 331.644531 267.046875 335.960938 267.046875 L 348.453125 267.046875 C 351.449219 267.046875 354.179688 265.816406 356.164062 263.832031 C 358.152344 261.847656 359.382812 259.117188 359.382812 256.117188 L 359.382812 148.339844 C 359.382812 145.34375 358.152344 142.609375 356.164062 140.628906 C 354.179688 138.644531 351.449219 137.410156 348.453125 137.410156 Z M 254.746094 137.410156 L 161.039062 137.410156 C 158.042969 137.410156 155.308594 138.644531 153.324219 140.628906 C 151.34375 142.609375 150.109375 145.34375 150.109375 148.339844 L 150.109375 256.117188 C 150.109375 259.117188 151.34375 261.847656 153.324219 263.832031 C 155.308594 265.816406 158.042969 267.046875 161.039062 267.046875 L 254.746094 267.046875 L 254.746094 282.671875 L 161.039062 282.671875 C 153.726562 282.671875 147.089844 279.6875 142.28125 274.878906 C 137.46875 270.066406 134.484375 263.429688 134.484375 256.117188 L 134.484375 148.339844 C 134.484375 141.03125 137.46875 134.390625 142.28125 129.582031 C 147.089844 124.769531 153.726562 121.785156 161.039062 121.785156 L 254.746094 121.785156 L 254.746094 137.410156 " fill-opacity="1" fill-rule="nonzero"/></g><path fill="#df5e0e" d="M 176.625 191.398438 C 172.3125 191.398438 168.8125 194.894531 168.8125 199.210938 C 168.8125 203.527344 172.3125 207.023438 176.625 207.023438 L 332.863281 207.023438 C 337.179688 207.023438 340.675781 203.527344 340.675781 199.210938 C 340.675781 194.894531 337.179688 191.398438 332.863281 191.398438 L 176.625 191.398438 " fill-opacity="1" fill-rule="nonzero"/><path fill="#df5e0e" d="M 176.625 160.152344 C 172.3125 160.152344 168.8125 163.648438 168.8125 167.964844 C 168.8125 172.28125 172.3125 175.777344 176.625 175.777344 L 332.863281 175.777344 C 337.179688 175.777344 340.675781 172.28125 340.675781 167.964844 C 340.675781 163.648438 337.179688 160.152344 332.863281 160.152344 L 176.625 160.152344 " fill-opacity="1" fill-rule="nonzero"/><path fill="#df5e0e" d="M 176.625 223.207031 C 172.3125 223.207031 168.8125 226.703125 168.8125 231.015625 C 168.8125 235.332031 172.3125 238.828125 176.625 238.828125 L 246.066406 238.828125 C 250.378906 238.828125 253.878906 235.332031 253.878906 231.015625 C 253.878906 226.703125 250.378906 223.207031 246.066406 223.207031 L 176.625 223.207031 " fill-opacity="1" fill-rule="nonzero"/><path fill="#df5e0e" d="M 126.1875 115.214844 L 113.539062 115.214844 C 113.503906 113.386719 113.484375 112.285156 113.484375 111.882812 C 113.484375 107.78125 114.164062 104.40625 115.519531 101.769531 C 116.875 99.105469 119.601562 96.144531 123.664062 92.824219 C 127.730469 89.523438 130.167969 87.355469 130.949219 86.320312 C 132.1875 84.710938 132.796875 82.914062 132.796875 80.96875 C 132.796875 78.257812 131.710938 75.9375 129.542969 73.992188 C 127.375 72.058594 124.464844 71.09375 120.789062 71.09375 C 117.25 71.09375 114.285156 72.109375 111.894531 74.125 C 109.523438 76.140625 107.878906 79.222656 106.980469 83.355469 L 94.195312 81.761719 C 94.546875 75.835938 97.074219 70.804688 101.75 66.671875 C 106.441406 62.539062 112.570312 60.472656 120.191406 60.472656 C 128.1875 60.472656 134.554688 62.570312 139.300781 66.757812 C 144.023438 70.941406 146.398438 75.804688 146.398438 81.375 C 146.398438 84.441406 145.515625 87.355469 143.785156 90.097656 C 142.042969 92.839844 138.335938 96.582031 132.640625 101.308594 C 129.695312 103.765625 127.863281 105.730469 127.152344 107.21875 C 126.441406 108.710938 126.125 111.371094 126.1875 115.214844 Z M 113.539062 133.964844 L 113.539062 120.027344 L 127.476562 120.027344 L 127.476562 133.964844 L 113.539062 133.964844 " fill-opacity="1" fill-rule="nonzero"/></svg>